<svg width="100" height="100" viewBox="0 0 100 100" fill="none" xmlns="http://www.w3.org/2000/svg">
  <!-- Hand-drawn notification bell with bold sketchy strokes -->
  <path d="M50 18C44 18 38 24 38 30V36C38 42 32 48 26 53V58H74V53C68 48 62 42 62 36V30C62 24 56 18 50 18Z" fill="#00CED1" stroke="#00A09D" stroke-width="3.5" stroke-linecap="round"/>
  <circle cx="50" cy="16" r="4" fill="#FFD700" stroke="#E6A700" stroke-width="2"/>
  <path d="M44 58C44 64 46 70 50 70C54 70 56 64 56 58" fill="#E3008C" stroke="#C7007A" stroke-width="3" stroke-linecap="round"/>
  <!-- Motion lines with bold strokes -->
  <path d="M23 48C19 48 16 46 15 42" stroke="#FFB900" stroke-width="2.5" stroke-linecap="round"/>
  <path d="M77 48C81 48 84 46 85 42" stroke="#FFB900" stroke-width="2.5" stroke-linecap="round"/>
  <path d="M26 36C22 32 20 27 21 23" stroke="#FFB900" stroke-width="2.5" stroke-linecap="round"/>
  <path d="M74 36C78 32 80 27 79 23" stroke="#FFB900" stroke-width="2.5" stroke-linecap="round"/>
  <!-- Hand-drawn imperfection -->
  <path d="M50 50C51 50.5 52 51 52.5 51.5" stroke="#00A09D" stroke-width="2" stroke-linecap="round" opacity="0.4"/>
</svg>
