<svg width="100" height="100" viewBox="0 0 100 100" fill="none" xmlns="http://www.w3.org/2000/svg">
  <!-- Hand-drawn calendar with sketchy strokes -->
  <rect x="18" y="23" width="64" height="58" rx="7" fill="#FFB900" stroke="#E6A700" stroke-width="3.5" stroke-linecap="round"/>
  <rect x="18" y="23" width="64" height="16" rx="7" fill="#E3008C" stroke="#C7007A" stroke-width="3.5"/>
  <!-- Binding rings with thick strokes -->
  <line x1="33" y1="18" x2="33" y2="30" stroke="#C7007A" stroke-width="4" stroke-linecap="round"/>
  <line x1="67" y1="18" x2="67" y2="30" stroke="#C7007A" stroke-width="4" stroke-linecap="round"/>
  <!-- Calendar dots with variation -->
  <circle cx="30" cy="48" r="3.5" fill="#FFFFFF" opacity="0.85"/>
  <circle cx="42" cy="48" r="3.5" fill="#FFFFFF" opacity="0.85"/>
  <circle cx="54" cy="48" r="3.5" fill="#FFFFFF" opacity="0.85"/>
  <circle cx="66" cy="48" r="3.5" fill="#FFFFFF" opacity="0.85"/>
  <circle cx="30" cy="59" r="3.5" fill="#FFFFFF" opacity="0.85"/>
  <circle cx="42" cy="59" r="3.5" fill="#FFFFFF" opacity="0.85"/>
  <circle cx="54" cy="59" r="4" fill="#00CED1" stroke="#00A09D" stroke-width="2"/>
  <circle cx="66" cy="59" r="3.5" fill="#FFFFFF" opacity="0.85"/>
  <circle cx="30" cy="70" r="3.5" fill="#FFFFFF" opacity="0.85"/>
  <circle cx="42" cy="70" r="3.5" fill="#FFFFFF" opacity="0.85"/>
  <!-- Check mark on selected date -->
  <path d="M50 58L53 61L58 56" stroke="#FFFFFF" stroke-width="2.5" stroke-linecap="round" stroke-linejoin="round"/>
  <!-- Hand-drawn detail -->
  <path d="M72 50C73 50.5 74 51 75 51.5" stroke="#E6A700" stroke-width="2" stroke-linecap="round" opacity="0.3"/>
</svg>
