<svg width="100" height="100" viewBox="0 0 100 100" fill="none" xmlns="http://www.w3.org/2000/svg">
  <!-- Hand-drawn gear with sketchy bold strokes -->
  <circle cx="50" cy="50" r="20" fill="#875A7B" stroke="#6F4E6A" stroke-width="3.5"/>
  <circle cx="50" cy="50" r="9" fill="#FFFFFF" stroke="#6F4E6A" stroke-width="2"/>
  <!-- Gear teeth with bold outlines -->
  <rect x="46" y="18" width="8" height="14" rx="3" fill="#875A7B" stroke="#6F4E6A" stroke-width="3"/>
  <rect x="46" y="68" width="8" height="14" rx="3" fill="#875A7B" stroke="#6F4E6A" stroke-width="3"/>
  <rect x="18" y="46" width="14" height="8" rx="3" fill="#875A7B" stroke="#6F4E6A" stroke-width="3"/>
  <rect x="68" y="46" width="14" height="8" rx="3" fill="#875A7B" stroke="#6F4E6A" stroke-width="3"/>
  <rect x="28" y="28" width="10" height="10" rx="3" fill="#875A7B" stroke="#6F4E6A" stroke-width="3" transform="rotate(-45 33 33)"/>
  <rect x="62" y="28" width="10" height="10" rx="3" fill="#875A7B" stroke="#6F4E6A" stroke-width="3" transform="rotate(45 67 33)"/>
  <rect x="28" y="62" width="10" height="10" rx="3" fill="#875A7B" stroke="#6F4E6A" stroke-width="3" transform="rotate(45 33 67)"/>
  <rect x="62" y="62" width="10" height="10" rx="3" fill="#875A7B" stroke="#6F4E6A" stroke-width="3" transform="rotate(-45 67 67)"/>
  <!-- Sparkle -->
  <circle cx="74" cy="26" r="3" fill="#FFD700"/>
  <!-- Hand-drawn detail -->
  <path d="M50 30C51 30 52 30.5 52.5 31" stroke="#FFFFFF" stroke-width="2" stroke-linecap="round" opacity="0.5"/>
</svg>
