<svg width="100" height="100" viewBox="0 0 100 100" fill="none" xmlns="http://www.w3.org/2000/svg">
  <!-- Hand-drawn heart with thick sketchy strokes -->
  <path d="M50 78C50 78 23 61 23 38C23 27 31 21 40 21C46 21 49 24 50 28C51 24 54 21 60 21C69 21 77 27 77 38C77 61 50 78 50 78Z" fill="#E3008C" stroke="#C7007A" stroke-width="3.5" stroke-linecap="round" stroke-linejoin="round"/>
  <!-- Pulse line with bold stroke -->
  <path d="M33 43L39 43L43 35L48 55L52 43L57 43" stroke="#FFFFFF" stroke-width="3" stroke-linecap="round" stroke-linejoin="round"/>
  <!-- Sparkles with hand-drawn feel -->
  <circle cx="28" cy="30" r="3" fill="#FFD700"/>
  <circle cx="72" cy="33" r="3" fill="#FFD700"/>
  <circle cx="62" cy="26" r="2" fill="#FFFFFF" opacity="0.85"/>
  <!-- Sketch detail -->
  <path d="M35 70C36 71 37 72 38 72.5" stroke="#C7007A" stroke-width="2" stroke-linecap="round" opacity="0.4"/>
</svg>
