<svg width="100" height="100" viewBox="0 0 100 100" fill="none" xmlns="http://www.w3.org/2000/svg">
  <!-- Hand-drawn star with bold sketchy outline -->
  <path d="M50 18L58 45H85L63 60L71 87L50 70L29 87L37 60L15 45H42L50 18Z" fill="#FFB900" stroke="#E6A700" stroke-width="3.5" stroke-linecap="round" stroke-linejoin="round"/>
  <!-- Inner shine with softer edges -->
  <path d="M50 28L56 44H72L58 54L64 70L50 59L36 70L42 54L28 44H44L50 28Z" fill="#FFFFFF" opacity="0.45"/>
  <!-- Sparkles around with hand-drawn feel -->
  <circle cx="23" cy="28" r="3" fill="#FFD700"/>
  <circle cx="77" cy="33" r="3" fill="#FFD700"/>
  <circle cx="28" cy="78" r="3" fill="#FFD700"/>
  <circle cx="72" cy="78" r="3" fill="#FFD700"/>
  <!-- Sketch marks -->
  <path d="M50 15C50.5 16 51 17 51 18" stroke="#E6A700" stroke-width="2" stroke-linecap="round" opacity="0.4"/>
</svg>
