<svg width="100" height="100" viewBox="0 0 100 100" fill="none" xmlns="http://www.w3.org/2000/svg">
  <!-- Hand-drawn team/people with thick strokes -->
  <circle cx="50" cy="33" r="13" fill="#7FBA00" stroke="#6FA000" stroke-width="3.5"/>
  <path d="M50 47C37 47 28 56 26 67C26 69 27 71 29 71H71C73 71 74 69 74 67C72 56 63 47 50 47Z" fill="#7FBA00" stroke="#6FA000" stroke-width="3.5" stroke-linecap="round"/>
  <circle cx="24" cy="38" r="10" fill="#00CED1" stroke="#00A09D" stroke-width="3"/>
  <path d="M24 49C16 49 10 55 9 63C9 64 10 65 11 65H37" fill="#00CED1" stroke="#00A09D" stroke-width="3" stroke-linecap="round"/>
  <circle cx="76" cy="38" r="10" fill="#E3008C" stroke="#C7007A" stroke-width="3"/>
  <path d="M76 49C84 49 90 55 91 63C91 64 90 65 89 65H63" fill="#E3008C" stroke="#C7007A" stroke-width="3" stroke-linecap="round"/>
  <!-- Happy faces with hand-drawn style -->
  <circle cx="48" cy="31" r="2" fill="#FFFFFF"/>
  <circle cx="52" cy="31" r="2" fill="#FFFFFF"/>
  <path d="M46 37C47.5 38.5 48.5 39 50 39C51.5 39 52.5 38.5 54 37" stroke="#FFFFFF" stroke-width="2" stroke-linecap="round"/>
  <!-- Sketch marks -->
  <path d="M50 45C50.5 45.5 51 46 51.5 46" stroke="#6FA000" stroke-width="2" stroke-linecap="round" opacity="0.4"/>
</svg>
